<svg xmlns="http://www.w3.org/2000/svg" fill="none" viewBox="0 0 283 64">
  <path fill="#000" d="M141.68 16.25c-11.04 0-19.14 7.2-19.14 18.27 0 10.91 8.38 18.24 19.18 18.24 6.75 0 12.54-2.64 16.35-7.17l-7.26-4.21c-2.02 2.5-5.17 4.03-9.09 4.03-5.25 0-9.7-3.01-11.16-7.8h29.83c.23-1.23.36-2.57.36-3.97 0-10.97-7.76-17.39-19.07-17.39Zm-9.54 14.48c1.26-4.64 4.91-7.5 9.54-7.5 4.64 0 8.27 2.86 9.53 7.5h-19.07ZM80.95 16.25c-11.04 0-19.14 7.2-19.14 18.27 0 10.91 8.38 18.24 19.18 18.24 6.75 0 12.54-2.64 16.35-7.17l-7.26-4.21c-2.02 2.5-5.17 4.03-9.09 4.03-5.25 0-9.7-3.01-11.16-7.8h29.83c.23-1.23.36-2.57.36-3.97 0-10.97-7.76-17.39-19.07-17.39Zm-9.54 14.48c1.26-4.64 4.91-7.5 9.54-7.5 4.64 0 8.27 2.86 9.53 7.5H71.41ZM248.3 17.01h-11.3l-4.41 11.77-4.43-11.77h-11.27l10.21 23.92-5.39 12.3h11.02l16.57-36.22Zm-46.37-.76c-4.74 0-8.22 2.13-10.2 5.19l-4.45-11.33h-10.77v46.16h11.02V36.41c1.98 3.06 5.45 5.18 10.19 5.18 7.89 0 14.3-6.58 14.3-17.17 0-10.58-6.41-17.17-14.3-17.17Zm-2.84 26.28c-4.64 0-8.27-3.83-8.27-9.11 0-5.29 3.63-9.12 8.27-9.12 4.63 0 8.26 3.83 8.26 9.12 0 5.28-3.63 9.11-8.26 9.11Zm-78.97-26.28c-4.74 0-8.22 2.13-10.2 5.19l-4.45-11.33h-10.77v46.16h11.02V36.41c1.98 3.06 5.45 5.18 10.19 5.18 7.89 0 14.3-6.58 14.3-17.17 0-10.58-6.41-17.17-14.3-17.17Zm-2.84 26.28c-4.64 0-8.27-3.83-8.27-9.11 0-5.29 3.63-9.12 8.27-9.12 4.63 0 8.26 3.83 8.26 9.12 0 5.28-3.63 9.11-8.26 9.11ZM17.5 0 0 30.97h35L17.5 0ZM96.07 52.24h10.52L71.19 0H60.67l35.4 52.24Z" />
</svg>
